<?xml version="1.0" encoding="UTF-8" standalone="no"?>
<svg
   xmlns:dc="http://purl.org/dc/elements/1.1/"
   xmlns:cc="http://creativecommons.org/ns#"
   xmlns:rdf="http://www.w3.org/1999/02/22-rdf-syntax-ns#"
   xmlns:svg="http://www.w3.org/2000/svg"
   xmlns="http://www.w3.org/2000/svg"
   xmlns:sodipodi="http://sodipodi.sourceforge.net/DTD/sodipodi-0.dtd"
   xmlns:inkscape="http://www.inkscape.org/namespaces/inkscape"
   sodipodi:docname="logo.svg"
   inkscape:version="1.0 (4035a4fb49, 2020-05-01)"
   id="svg8"
   version="1.1"
   viewBox="0 0 270.93333 270.93334"
   height="1024"
   width="1024"
   inkscape:export-filename="C:\Infography\Nukode\Logo 2022\Nukode Logo 2022 White Transparent Shape Only.png"
   inkscape:export-xdpi="96.000008"
   inkscape:export-ydpi="96.000008">
  <defs
     id="defs2" />
  <sodipodi:namedview
     inkscape:window-maximized="1"
     inkscape:window-y="-8"
     inkscape:window-x="-8"
     inkscape:window-height="715"
     inkscape:window-width="1360"
     units="px"
     showgrid="false"
     inkscape:document-rotation="0"
     inkscape:current-layer="layer1"
     inkscape:document-units="mm"
     inkscape:cy="381.04898"
     inkscape:cx="555.63484"
     inkscape:zoom="0.49497475"
     inkscape:pageshadow="2"
     inkscape:pageopacity="0.0"
     borderopacity="1.0"
     bordercolor="#666666"
     pagecolor="#ffffff"
     id="base" />
  <metadata
     id="metadata5">
    <rdf:RDF>
      <cc:Work
         rdf:about="">
        <dc:format>image/svg+xml</dc:format>
        <dc:type
           rdf:resource="http://purl.org/dc/dcmitype/StillImage" />
        <dc:title />
      </cc:Work>
    </rdf:RDF>
  </metadata>
  <g
     id="layer1"
     inkscape:groupmode="layer"
     inkscape:label="Layer 1">
    <g
       transform="translate(0.36423189,7.2734092)"
       aria-label="("
       id="text858"
       style="font-size:84.534px;line-height:1.25;font-family:'Chakra Petch';-inkscape-font-specification:'Chakra Petch';fill:#000000;stroke-width:0.264583" />
    <g
       aria-label="("
       transform="rotate(180,0.18211595,3.6367046)"
       id="text862"
       style="font-size:84.534px;line-height:1.25;font-family:'Chakra Petch';-inkscape-font-specification:'Chakra Petch';fill:#000000;stroke-width:0.264583" />
    <g
       transform="translate(0.36423189,7.2734092)"
       aria-label="\"
       id="text866"
       style="font-size:77.9073px;line-height:1.25;font-family:'Chakra Petch';-inkscape-font-specification:'Chakra Petch';fill:#000000;stroke-width:0.264582" />
    <g
       transform="translate(0.36423189,7.2734092)"
       aria-label="NUKODE"
       id="text870"
       style="font-size:45.4229px;line-height:1.25;font-family:'Chakra Petch';-inkscape-font-specification:'Chakra Petch';letter-spacing:11.3557px;fill:#000000;stroke-width:0.264583">
      <path
         d="m 229.18313,159.54323 h 22.98399 v 5.22364 h -16.80647 v 8.03985 h 15.48921 v 5.13279 h -15.48921 v 8.17612 h 16.80647 v 5.22363 h -22.98399 z m -42.58393,0 h 20.34945 l 5.45075,5.45075 v 20.89454 l -5.45075,5.45074 H 186.5992 Z m 17.30612,26.52698 2.31657,-2.31657 v -16.62478 l -2.31657,-2.31657 h -11.12861 v 21.25792 z m -60.8766,0.0454 v -21.34876 l 5.22363,-5.22364 h 16.35225 l 5.22363,5.22364 v 21.34876 l -5.22363,5.22363 h -16.35225 z m 18.30543,-0.0454 2.31656,-2.31657 v -16.62478 l -2.31656,-2.31657 h -9.81135 l -2.31657,2.31657 v 16.62478 l 2.31657,2.31657 z m -57.15263,-26.527 h 6.17751 v 13.30891 h 4.81483 l 7.67647,-13.30891 h 6.9497 l -9.31169,15.8526 10.08388,15.94343 h -7.08597 l -8.35781,-13.21806 h -4.76941 v 13.21806 h -6.17751 z m -43.116245,26.34529 v -26.34529 h 6.177514 v 24.21041 l 2.316568,2.31657 h 8.902889 l 2.316568,-2.31657 v -24.21041 h 6.177514 v 26.34529 l -5.450748,5.45074 H 66.516023 Z M 18.037748,159.54323 h 5.541594 l 14.171945,21.57588 h 0.09085 v -21.57588 h 5.9504 v 31.79603 H 38.250939 L 24.078994,169.80881 h -0.09085 v 21.53045 h -5.9504 z M 114.18442,75.5558 h 10.6733 l 31.16292,54.53511 H 145.42525 Z M 90.370936,130.47999 V 75.451466 L 100.77515,65.047255 h 11.3796 v 9.26625 h -6.1775 l -4.87697,4.876974 v 47.550491 l 4.87697,4.87698 h 6.1775 v 9.26625 h -11.3796 z M 179.83395,75.451462 v 55.028518 l -10.40421,10.40421 h -11.3796 v -9.26625 h 6.1775 l 4.87697,-4.87697 V 79.190475 l -4.87697,-4.876974 h -6.1775 v -9.26625 h 11.3796 z"
         style="font-style:normal;font-variant:normal;font-weight:bold;font-stretch:normal;font-family:'Chakra Petch';-inkscape-font-specification:'Chakra Petch Bold';text-align:center;text-anchor:middle;fill:#ffffff;stroke-width:0.264583"
         id="path1464" />
    </g>
  </g>
</svg>
